<?xml version="1.0" encoding="UTF-8" standalone="no"?>
<!-- Created with Inkscape (http://www.inkscape.org/) -->

<svg
   xmlns:dc="http://purl.org/dc/elements/1.1/"
   xmlns:cc="http://creativecommons.org/ns#"
   xmlns:rdf="http://www.w3.org/1999/02/22-rdf-syntax-ns#"
   xmlns:svg="http://www.w3.org/2000/svg"
   xmlns="http://www.w3.org/2000/svg"
   xmlns:sodipodi="http://sodipodi.sourceforge.net/DTD/sodipodi-0.dtd"
   xmlns:inkscape="http://www.inkscape.org/namespaces/inkscape"
   width="304.40228"
   height="152.25"
   id="svg5221"
   version="1.1"
   inkscape:version="0.48.4 r9939"
   sodipodi:docname="Neues Dokument 4">
  <defs
     id="defs5223">
    <clipPath
       clipPathUnits="userSpaceOnUse"
       id="clipPath1890">
      <path
         inkscape:connector-curvature="0"
         d="m 164.617,398.24 54.079,0 0,77.591 -54.079,0 0,-77.591 z"
         id="path1892" />
    </clipPath>
    <clipPath
       clipPathUnits="userSpaceOnUse"
       id="clipPath1864">
      <path
         inkscape:connector-curvature="0"
         d="M 0,612 396,612 396,0 0,0 0,612 z"
         id="path1866" />
    </clipPath>
    <clipPath
       clipPathUnits="userSpaceOnUse"
       id="clipPath1800">
      <path
         inkscape:connector-curvature="0"
         d="m 164.617,500.741 54.079,0 0,77.591 -54.079,0 0,-77.591 z"
         id="path1802" />
    </clipPath>
  </defs>
  <sodipodi:namedview
     id="base"
     pagecolor="#ffffff"
     bordercolor="#666666"
     borderopacity="1.0"
     inkscape:pageopacity="0.0"
     inkscape:pageshadow="2"
     inkscape:zoom="1.4272021"
     inkscape:cx="120.3794"
     inkscape:cy="34.982132"
     inkscape:document-units="px"
     inkscape:current-layer="g5506"
     showgrid="false"
     fit-margin-top="10"
     fit-margin-right="10"
     fit-margin-left="10"
     fit-margin-bottom="10"
     inkscape:window-width="1280"
     inkscape:window-height="977"
     inkscape:window-x="0"
     inkscape:window-y="22"
     inkscape:window-maximized="1" />
  <metadata
     id="metadata5226">
    <rdf:RDF>
      <cc:Work
         rdf:about="">
        <dc:format>image/svg+xml</dc:format>
        <dc:type
           rdf:resource="http://purl.org/dc/dcmitype/StillImage" />
        <dc:title></dc:title>
      </cc:Work>
    </rdf:RDF>
  </metadata>
  <g
     inkscape:label="Ebene 1"
     inkscape:groupmode="layer"
     id="layer1"
     transform="translate(-413.90632,-310.8086)">
    <g
       id="g5506"
       transform="matrix(0,1,-1,0,1000.9336,-119.0664)">
      <path
         id="path1674"
         style="fill:#e9e9e9;fill-opacity:1;fill-rule:nonzero;stroke:#4f4c4d;stroke-width:0.22375001;stroke-linecap:butt;stroke-linejoin:miter;stroke-miterlimit:4;stroke-opacity:1;stroke-dasharray:none"
         d="m 549.42344,517.89494 -22.53375,0 0,-96.98875 22.53375,0 0,96.98875 z"
         inkscape:connector-curvature="0" />
      <path
         id="path1680"
         style="fill:none;stroke:#4f4c4d;stroke-width:0.3125;stroke-linecap:butt;stroke-linejoin:miter;stroke-miterlimit:4;stroke-opacity:1;stroke-dasharray:none"
         d="m 571.95469,517.89494 -22.53125,0 0,-96.98875 22.53125,0 0,96.98875 z"
         inkscape:connector-curvature="0" />
      <path
         id="path1686"
         style="fill:#e9e9e9;fill-opacity:1;fill-rule:nonzero;stroke:#4f4c4d;stroke-width:0.22375001;stroke-linecap:butt;stroke-linejoin:miter;stroke-miterlimit:4;stroke-opacity:1;stroke-dasharray:none"
         d="m 549.42344,389.76869 -22.53375,0 0,-96.98875 22.53375,0 0,96.98875 z"
         inkscape:connector-curvature="0" />
      <path
         id="path1692"
         style="fill:none;stroke:#4f4c4d;stroke-width:0.3125;stroke-linecap:butt;stroke-linejoin:miter;stroke-miterlimit:4;stroke-opacity:1;stroke-dasharray:none"
         d="m 571.95469,389.76869 -22.53125,0 0,-96.98875 22.53125,0 0,96.98875 z"
         inkscape:connector-curvature="0" />
      <g
         transform="matrix(1.25,0,0,-1.25,465.08169,528.52944)"
         id="g1714">
        <path
           id="path1716"
           style="fill:none;stroke:#bdbcbc;stroke-width:0.25;stroke-linecap:butt;stroke-linejoin:miter;stroke-miterlimit:10;stroke-opacity:1;stroke-dasharray:none"
           d="M 0,0 12.324,0"
           inkscape:connector-curvature="0" />
      </g>
      <g
         transform="matrix(1.25,0,0,-1.25,542.33931,528.52944)"
         id="g1718">
        <path
           id="path1720"
           style="fill:none;stroke:#bdbcbc;stroke-width:0.25;stroke-linecap:butt;stroke-linejoin:miter;stroke-miterlimit:10;stroke-opacity:1;stroke-dasharray:none"
           d="M 0,0 12.324,0"
           inkscape:connector-curvature="0" />
      </g>
      <path
         id="path1722"
         style="fill:none;stroke:#4f4c4d;stroke-width:0.22375001;stroke-linecap:butt;stroke-linejoin:miter;stroke-miterlimit:4;stroke-opacity:1;stroke-dasharray:none"
         d="m 462.53344,389.76869 -22.5325,0 0,-96.98875 22.5325,0 0,96.98875 z"
         inkscape:connector-curvature="0" />
      <path
         id="path1728"
         style="fill:#e9e9e9;fill-opacity:1;fill-rule:nonzero;stroke:#4f4c4d;stroke-width:0.22375001;stroke-linecap:butt;stroke-linejoin:miter;stroke-miterlimit:4;stroke-opacity:1;stroke-dasharray:none"
         d="m 485.06594,389.76869 -22.5325,0 0,-96.98875 22.5325,0 0,96.98875 z"
         inkscape:connector-curvature="0" />
      <path
         id="path1734"
         style="fill:#e9e9e9;fill-opacity:1;fill-rule:nonzero;stroke:#4f4c4d;stroke-width:0.22375001;stroke-linecap:butt;stroke-linejoin:miter;stroke-miterlimit:4;stroke-opacity:1;stroke-dasharray:none"
         d="m 507.59844,389.76869 -22.5325,0 0,-96.98875 22.5325,0 0,96.98875 z"
         inkscape:connector-curvature="0" />
      <g
         transform="matrix(1.25,0,0,-1.25,454.43106,370.78406)"
         id="g1740">
        <path
           id="path1742"
           style="fill:#fff200;fill-opacity:1;fill-rule:nonzero;stroke:none"
           d="M 0,0 C 0.442,0 0.8,-0.357 0.8,-0.8 0.8,-1.241 0.442,-1.6 0,-1.6 l -5.301,0 c -0.442,0 -0.801,0.359 -0.801,0.8 0,0.443 0.359,0.8 0.801,0.8 L 0,0 z"
           inkscape:connector-curvature="0" />
      </g>
      <g
         transform="matrix(1.25,0,0,-1.25,454.43106,370.78406)"
         id="g1744">
        <path
           id="path1746"
           style="fill:none;stroke:#231f20;stroke-width:0.161;stroke-linecap:butt;stroke-linejoin:miter;stroke-miterlimit:4;stroke-opacity:1;stroke-dasharray:none"
           d="M 0,0 C 0.442,0 0.8,-0.357 0.8,-0.8 0.8,-1.241 0.442,-1.6 0,-1.6 l -5.301,0 c -0.442,0 -0.801,0.359 -0.801,0.8 0,0.443 0.359,0.8 0.801,0.8 L 0,0 z"
           inkscape:connector-curvature="0" />
      </g>
      <g
         transform="matrix(1.25,0,0,-1.25,458.48131,365.46306)"
         id="g1748">
        <path
           id="path1750"
           style="fill:#fff200;fill-opacity:1;fill-rule:nonzero;stroke:none"
           d="m 0,0 c 0.312,-0.312 0.312,-0.819 0,-1.132 -0.312,-0.311 -0.819,-0.311 -1.132,0 L -4.88,2.617 c -0.312,0.313 -0.312,0.82 0,1.132 0.313,0.313 0.819,0.313 1.131,0 L 0,0 z"
           inkscape:connector-curvature="0" />
      </g>
      <g
         transform="matrix(1.25,0,0,-1.25,458.48131,365.46306)"
         id="g1752">
        <path
           id="path1754"
           style="fill:none;stroke:#231f20;stroke-width:0.161;stroke-linecap:butt;stroke-linejoin:miter;stroke-miterlimit:4;stroke-opacity:1;stroke-dasharray:none"
           d="m 0,0 c 0.312,-0.312 0.312,-0.819 0,-1.132 -0.312,-0.311 -0.819,-0.311 -1.132,0 L -4.88,2.617 c -0.312,0.313 -0.312,0.82 0,1.132 0.313,0.313 0.819,0.313 1.131,0 L 0,0 z"
           inkscape:connector-curvature="0" />
      </g>
      <g
         transform="matrix(1.25,0,0,-1.25,452.38157,381.37606)"
         id="g1756">
        <path
           id="path1758"
           style="fill:#fff200;fill-opacity:1;fill-rule:nonzero;stroke:none"
           d="m 0,0 c -0.312,-0.312 -0.312,-0.819 0,-1.132 0.313,-0.312 0.819,-0.312 1.131,0 L 4.88,2.617 c 0.312,0.313 0.312,0.818 0,1.131 -0.313,0.312 -0.819,0.312 -1.132,0 L 0,0 z"
           inkscape:connector-curvature="0" />
      </g>
      <g
         transform="matrix(1.25,0,0,-1.25,452.38157,381.37606)"
         id="g1760">
        <path
           id="path1762"
           style="fill:none;stroke:#231f20;stroke-width:0.161;stroke-linecap:butt;stroke-linejoin:miter;stroke-miterlimit:4;stroke-opacity:1;stroke-dasharray:none"
           d="m 0,0 c -0.312,-0.312 -0.312,-0.819 0,-1.132 0.313,-0.312 0.819,-0.312 1.131,0 L 4.88,2.617 c 0.312,0.313 0.312,0.818 0,1.131 -0.313,0.312 -0.819,0.312 -1.132,0 L 0,0 z"
           inkscape:connector-curvature="0" />
      </g>
      <g
         transform="matrix(1.25,0,0,-1.25,470.64444,363.29256)"
         id="g1764">
        <path
           id="path1766"
           style="fill:#fff200;fill-opacity:1;fill-rule:nonzero;stroke:none"
           d="m 0,0 c -0.312,-0.311 -0.312,-0.818 0,-1.131 0.312,-0.312 0.819,-0.312 1.132,0 L 4.88,2.617 c 0.312,0.313 0.312,0.82 0,1.132 -0.313,0.313 -0.819,0.313 -1.131,0 L 0,0 z"
           inkscape:connector-curvature="0" />
      </g>
      <g
         transform="matrix(1.25,0,0,-1.25,470.64444,363.29256)"
         id="g1768">
        <path
           id="path1770"
           style="fill:none;stroke:#231f20;stroke-width:0.161;stroke-linecap:butt;stroke-linejoin:miter;stroke-miterlimit:4;stroke-opacity:1;stroke-dasharray:none"
           d="m 0,0 c -0.312,-0.311 -0.312,-0.818 0,-1.131 0.312,-0.312 0.819,-0.312 1.132,0 L 4.88,2.617 c 0.312,0.313 0.312,0.82 0,1.132 -0.313,0.313 -0.819,0.313 -1.131,0 L 0,0 z"
           inkscape:connector-curvature="0" />
      </g>
      <g
         transform="matrix(1.25,0,0,-1.25,476.74431,383.54769)"
         id="g1772">
        <path
           id="path1774"
           style="fill:#fff200;fill-opacity:1;fill-rule:nonzero;stroke:none"
           d="m 0,0 c 0.312,-0.312 0.312,-0.818 0,-1.131 -0.312,-0.312 -0.819,-0.312 -1.131,0 L -4.88,2.617 c -0.312,0.313 -0.312,0.819 0,1.132 0.313,0.312 0.819,0.312 1.132,0 L 0,0 z"
           inkscape:connector-curvature="0" />
      </g>
      <g
         transform="matrix(1.25,0,0,-1.25,476.74431,383.54769)"
         id="g1776">
        <path
           id="path1778"
           style="fill:none;stroke:#231f20;stroke-width:0.161;stroke-linecap:butt;stroke-linejoin:miter;stroke-miterlimit:4;stroke-opacity:1;stroke-dasharray:none"
           d="m 0,0 c 0.312,-0.312 0.312,-0.818 0,-1.131 -0.312,-0.312 -0.819,-0.312 -1.131,0 L -4.88,2.617 c -0.312,0.313 -0.312,0.819 0,1.132 0.313,0.312 0.819,0.312 1.132,0 L 0,0 z"
           inkscape:connector-curvature="0" />
      </g>
      <g
         transform="matrix(1.25,0,0,-1.25,463.60531,386.33331)"
         id="g1780">
        <path
           id="path1782"
           style="fill:#fff200;fill-opacity:1;fill-rule:nonzero;stroke:none"
           d="m 0,0 c 0,-0.441 0.358,-0.8 0.8,-0.8 0.442,0 0.8,0.359 0.8,0.8 L 1.599,5.303 c 0,0.441 -0.358,0.8 -0.801,0.8 -0.441,0 -0.799,-0.359 -0.799,-0.801 L 0,0 z"
           inkscape:connector-curvature="0" />
      </g>
      <g
         transform="matrix(1.25,0,0,-1.25,463.60531,386.33331)"
         id="g1784">
        <path
           id="path1786"
           style="fill:none;stroke:#231f20;stroke-width:0.161;stroke-linecap:butt;stroke-linejoin:miter;stroke-miterlimit:4;stroke-opacity:1;stroke-dasharray:none"
           d="m 0,0 c 0,-0.441 0.358,-0.8 0.8,-0.8 0.442,0 0.8,0.359 0.8,0.8 L 1.599,5.303 c 0,0.441 -0.358,0.8 -0.801,0.8 -0.441,0 -0.799,-0.359 -0.799,-0.801 L 0,0 z"
           inkscape:connector-curvature="0" />
      </g>
      <g
         transform="matrix(1.25,0,0,-1.25,463.60531,363.86394)"
         id="g1788">
        <path
           id="path1790"
           style="fill:#fff200;fill-opacity:1;fill-rule:nonzero;stroke:none"
           d="m 0,0 c 0,-0.441 0.358,-0.8 0.8,-0.8 0.442,0 0.8,0.359 0.8,0.801 L 1.599,5.303 c 0,0.441 -0.358,0.8 -0.801,0.8 -0.441,0 -0.799,-0.359 -0.799,-0.8 L 0,0 z"
           inkscape:connector-curvature="0" />
      </g>
      <g
         transform="matrix(1.25,0,0,-1.25,463.60531,363.86394)"
         id="g1792">
        <path
           id="path1794"
           style="fill:none;stroke:#231f20;stroke-width:0.161;stroke-linecap:butt;stroke-linejoin:miter;stroke-miterlimit:4;stroke-opacity:1;stroke-dasharray:none"
           d="m 0,0 c 0,-0.441 0.358,-0.8 0.8,-0.8 0.442,0 0.8,0.359 0.8,0.801 L 1.599,5.303 c 0,0.441 -0.358,0.8 -0.801,0.8 -0.441,0 -0.799,-0.359 -0.799,-0.8 L 0,0 z"
           inkscape:connector-curvature="0" />
      </g>
      <g
         id="g1796"
         transform="matrix(1.25,0,0,-1.25,234.22844,1015.6949)">
        <g
           clip-path="url(#clipPath1800)"
           id="g1798">
          <g
             transform="translate(225.9375,517.4893)"
             id="g1804">
            <path
               id="path1806"
               style="fill:#bdbcbc;fill-opacity:1;fill-rule:nonzero;stroke:none"
               d="m 0,0 0,-0.866 -33.388,-0.002 0.002,0.866 L 0,0 z"
               inkscape:connector-curvature="0" />
          </g>
          <g
             transform="translate(225.9375,517.4893)"
             id="g1808">
            <path
               id="path1810"
               style="fill:none;stroke:#231f20;stroke-width:0.161;stroke-linecap:butt;stroke-linejoin:miter;stroke-miterlimit:4;stroke-opacity:1;stroke-dasharray:none"
               d="m 0,0 0,-0.866 -33.388,-0.002 0.002,0.866 L 0,0 z"
               inkscape:connector-curvature="0" />
          </g>
          <g
             transform="translate(218.6299,513.6719)"
             id="g1812">
            <path
               id="path1814"
               style="fill:#bdbcbc;fill-opacity:1;fill-rule:nonzero;stroke:none"
               d="M 0,0 -0.002,-0.868 -26.08,-0.867 -26.08,0 0,0 z"
               inkscape:connector-curvature="0" />
          </g>
          <g
             transform="translate(218.6299,513.6719)"
             id="g1816">
            <path
               id="path1818"
               style="fill:none;stroke:#231f20;stroke-width:0.161;stroke-linecap:butt;stroke-linejoin:miter;stroke-miterlimit:4;stroke-opacity:1;stroke-dasharray:none"
               d="M 0,0 -0.002,-0.868 -26.08,-0.867 -26.08,0 0,0 z"
               inkscape:connector-curvature="0" />
          </g>
          <g
             transform="translate(192.5498,519.6133)"
             id="g1820">
            <path
               id="path1822"
               style="fill:#fff200;fill-opacity:1;fill-rule:nonzero;stroke:none"
               d="m 0,0 -0.001,-8.11 -1.56,0 L -1.562,0 0,0 z"
               inkscape:connector-curvature="0" />
          </g>
          <g
             transform="translate(192.5498,519.6133)"
             id="g1824">
            <path
               id="path1826"
               style="fill:none;stroke:#231f20;stroke-width:0.161;stroke-linecap:butt;stroke-linejoin:miter;stroke-miterlimit:4;stroke-opacity:1;stroke-dasharray:none"
               d="m 0,0 -0.001,-8.11 -1.56,0 L -1.562,0 0,0 z"
               inkscape:connector-curvature="0" />
          </g>
          <g
             transform="translate(179.9697,515.5791)"
             id="g1828">
            <path
               id="path1830"
               style="fill:#fff200;fill-opacity:1;fill-rule:nonzero;stroke:none"
               d="m 0,0 0.001,-0.954 c 0,-1.726 1.398,-3.123 3.122,-3.122 l 3.84,10e-4 0.933,-10e-4 3.123,0 -10e-4,3.124 10e-4,0.952 -10e-4,3.123 -3.123,0 -0.932,0 -3.839,0 C 1.4,3.123 0.001,1.724 0,0"
               inkscape:connector-curvature="0" />
          </g>
          <g
             transform="translate(179.9697,515.5791)"
             id="g1832">
            <path
               id="path1834"
               style="fill:none;stroke:#231f20;stroke-width:0.161;stroke-linecap:butt;stroke-linejoin:miter;stroke-miterlimit:4;stroke-opacity:1;stroke-dasharray:none"
               d="m 0,0 0.001,-0.954 c 0,-1.726 1.398,-3.123 3.122,-3.122 l 3.84,10e-4 0.933,-10e-4 3.123,0 -10e-4,3.124 10e-4,0.952 -10e-4,3.123 -3.123,0 -0.932,0 -3.839,0 C 1.4,3.123 0.001,1.724 0,0 z"
               inkscape:connector-curvature="0" />
          </g>
          <g
             transform="translate(196.3662,517.6729)"
             id="g1836">
            <path
               id="path1838"
               style="fill:#ffffff;fill-opacity:1;fill-rule:nonzero;stroke:none"
               d="m 0,0 -0.001,-1.235 -2.253,0 0,1.234 L 0,0 z"
               inkscape:connector-curvature="0" />
          </g>
          <g
             transform="translate(196.3662,517.6729)"
             id="g1840">
            <path
               id="path1842"
               style="fill:#bdbcbc;fill-opacity:1;fill-rule:nonzero;stroke:none"
               d="m 0,0 -0.001,-1.235 -2.253,0 0,1.234 L 0,0 z"
               inkscape:connector-curvature="0" />
          </g>
          <g
             transform="translate(196.3662,517.6729)"
             id="g1844">
            <path
               id="path1846"
               style="fill:none;stroke:#231f20;stroke-width:0.161;stroke-linecap:butt;stroke-linejoin:miter;stroke-miterlimit:4;stroke-opacity:1;stroke-dasharray:none"
               d="m 0,0 -0.001,-1.235 -2.253,0 0,1.234 L 0,0 z"
               inkscape:connector-curvature="0" />
          </g>
          <g
             transform="translate(196.3662,513.8555)"
             id="g1848">
            <path
               id="path1850"
               style="fill:#ffffff;fill-opacity:1;fill-rule:nonzero;stroke:none"
               d="m 0,0 -0.001,-1.236 -2.253,0 0,1.236 L 0,0 z"
               inkscape:connector-curvature="0" />
          </g>
          <g
             transform="translate(196.3662,513.8555)"
             id="g1852">
            <path
               id="path1854"
               style="fill:#bdbcbc;fill-opacity:1;fill-rule:nonzero;stroke:none"
               d="m 0,0 -0.001,-1.236 -2.253,0 0,1.236 L 0,0 z"
               inkscape:connector-curvature="0" />
          </g>
          <g
             transform="translate(196.3662,513.8555)"
             id="g1856">
            <path
               id="path1858"
               style="fill:none;stroke:#231f20;stroke-width:0.161;stroke-linecap:butt;stroke-linejoin:miter;stroke-miterlimit:4;stroke-opacity:1;stroke-dasharray:none"
               d="m 0,0 -0.001,-1.236 -2.253,0 0,1.236 L 0,0 z"
               inkscape:connector-curvature="0" />
          </g>
        </g>
      </g>
      <g
         id="g1860"
         transform="matrix(1.25,0,0,-1.25,234.22844,1015.6949)">
        <g
           clip-path="url(#clipPath1864)"
           id="g1862">
          <path
             id="path1868"
             style="fill:none;stroke:#4f4c4d;stroke-width:0.17900001;stroke-linecap:butt;stroke-linejoin:miter;stroke-miterlimit:4;stroke-opacity:1;stroke-dasharray:none"
             d="m 182.644,398.24 -18.026,0 0,77.591 18.026,0 0,-77.591 z"
             inkscape:connector-curvature="0" />
          <path
             id="path1874"
             style="fill:#e9e9e9;fill-opacity:1;fill-rule:nonzero;stroke:#4f4c4d;stroke-width:0.17900001;stroke-linecap:butt;stroke-linejoin:miter;stroke-miterlimit:4;stroke-opacity:1;stroke-dasharray:none"
             d="m 200.67,398.24 -18.026,0 0,77.591 18.026,0 0,-77.591 z"
             inkscape:connector-curvature="0" />
          <path
             id="path1880"
             style="fill:#e9e9e9;fill-opacity:1;fill-rule:nonzero;stroke:#4f4c4d;stroke-width:0.17900001;stroke-linecap:butt;stroke-linejoin:miter;stroke-miterlimit:4;stroke-opacity:1;stroke-dasharray:none"
             d="m 218.696,398.24 -18.026,0 0,77.591 18.026,0 0,-77.591 z"
             inkscape:connector-curvature="0" />
        </g>
      </g>
      <g
         id="g1886"
         transform="matrix(1.25,0,0,-1.25,234.22844,1015.6949)">
        <g
           clip-path="url(#clipPath1890)"
           id="g1888">
          <g
             transform="translate(225.9375,414.9883)"
             id="g1894">
            <path
               id="path1896"
               style="fill:#bdbcbc;fill-opacity:1;fill-rule:nonzero;stroke:none"
               d="m 0,0 0,-0.866 -33.388,-0.002 0.002,0.865 L 0,0 z"
               inkscape:connector-curvature="0" />
          </g>
          <g
             transform="translate(225.9375,414.9883)"
             id="g1898">
            <path
               id="path1900"
               style="fill:none;stroke:#231f20;stroke-width:0.161;stroke-linecap:butt;stroke-linejoin:miter;stroke-miterlimit:4;stroke-opacity:1;stroke-dasharray:none"
               d="m 0,0 0,-0.866 -33.388,-0.002 0.002,0.865 L 0,0 z"
               inkscape:connector-curvature="0" />
          </g>
          <g
             transform="translate(218.6299,411.1699)"
             id="g1902">
            <path
               id="path1904"
               style="fill:#bdbcbc;fill-opacity:1;fill-rule:nonzero;stroke:none"
               d="M 0,0 -0.002,-0.868 -26.08,-0.867 -26.08,0 0,0 z"
               inkscape:connector-curvature="0" />
          </g>
          <g
             transform="translate(218.6299,411.1699)"
             id="g1906">
            <path
               id="path1908"
               style="fill:none;stroke:#231f20;stroke-width:0.161;stroke-linecap:butt;stroke-linejoin:miter;stroke-miterlimit:4;stroke-opacity:1;stroke-dasharray:none"
               d="M 0,0 -0.002,-0.868 -26.08,-0.867 -26.08,0 0,0 z"
               inkscape:connector-curvature="0" />
          </g>
          <g
             transform="translate(192.5498,417.1113)"
             id="g1910">
            <path
               id="path1912"
               style="fill:#bdbcbc;fill-opacity:1;fill-rule:nonzero;stroke:none"
               d="m 0,0 -0.001,-8.11 -1.56,0 L -1.562,0 0,0 z"
               inkscape:connector-curvature="0" />
          </g>
          <g
             transform="translate(192.5498,417.1113)"
             id="g1914">
            <path
               id="path1916"
               style="fill:none;stroke:#231f20;stroke-width:0.161;stroke-linecap:butt;stroke-linejoin:miter;stroke-miterlimit:4;stroke-opacity:1;stroke-dasharray:none"
               d="m 0,0 -0.001,-8.11 -1.56,0 L -1.562,0 0,0 z"
               inkscape:connector-curvature="0" />
          </g>
          <g
             transform="translate(179.9697,413.0781)"
             id="g1918">
            <path
               id="path1920"
               style="fill:#bdbcbc;fill-opacity:1;fill-rule:nonzero;stroke:none"
               d="m 0,0 0.001,-0.955 c 0,-1.726 1.398,-3.122 3.122,-3.121 l 3.84,0 0.933,-0.001 3.123,0 -10e-4,3.124 L 11.019,0 11.018,3.122 7.895,3.123 6.963,3.123 3.124,3.122 C 1.4,3.123 0.001,1.724 0,0"
               inkscape:connector-curvature="0" />
          </g>
          <g
             transform="translate(179.9697,413.0781)"
             id="g1922">
            <path
               id="path1924"
               style="fill:none;stroke:#231f20;stroke-width:0.161;stroke-linecap:butt;stroke-linejoin:miter;stroke-miterlimit:4;stroke-opacity:1;stroke-dasharray:none"
               d="m 0,0 0.001,-0.955 c 0,-1.726 1.398,-3.122 3.122,-3.121 l 3.84,0 0.933,-0.001 3.123,0 -10e-4,3.124 L 11.019,0 11.018,3.122 7.895,3.123 6.963,3.123 3.124,3.122 C 1.4,3.123 0.001,1.724 0,0 z"
               inkscape:connector-curvature="0" />
          </g>
          <g
             transform="translate(196.3662,415.1719)"
             id="g1926">
            <path
               id="path1928"
               style="fill:#ffffff;fill-opacity:1;fill-rule:nonzero;stroke:none"
               d="m 0,0 -0.001,-1.235 -2.253,0 0,1.234 L 0,0 z"
               inkscape:connector-curvature="0" />
          </g>
          <g
             transform="translate(196.3662,415.1719)"
             id="g1930">
            <path
               id="path1932"
               style="fill:#bdbcbc;fill-opacity:1;fill-rule:nonzero;stroke:none"
               d="m 0,0 -0.001,-1.235 -2.253,0 0,1.234 L 0,0 z"
               inkscape:connector-curvature="0" />
          </g>
          <g
             transform="translate(196.3662,415.1719)"
             id="g1934">
            <path
               id="path1936"
               style="fill:none;stroke:#231f20;stroke-width:0.161;stroke-linecap:butt;stroke-linejoin:miter;stroke-miterlimit:4;stroke-opacity:1;stroke-dasharray:none"
               d="m 0,0 -0.001,-1.235 -2.253,0 0,1.234 L 0,0 z"
               inkscape:connector-curvature="0" />
          </g>
          <g
             transform="translate(196.3662,411.3535)"
             id="g1938">
            <path
               id="path1940"
               style="fill:#ffffff;fill-opacity:1;fill-rule:nonzero;stroke:none"
               d="M 0,0 -0.001,-1.235 -2.254,-1.236 -2.254,0 0,0 z"
               inkscape:connector-curvature="0" />
          </g>
          <g
             transform="translate(196.3662,411.3535)"
             id="g1942">
            <path
               id="path1944"
               style="fill:#bdbcbc;fill-opacity:1;fill-rule:nonzero;stroke:none"
               d="M 0,0 -0.001,-1.235 -2.254,-1.236 -2.254,0 0,0 z"
               inkscape:connector-curvature="0" />
          </g>
          <g
             transform="translate(196.3662,411.3535)"
             id="g1946">
            <path
               id="path1948"
               style="fill:none;stroke:#231f20;stroke-width:0.161;stroke-linecap:butt;stroke-linejoin:miter;stroke-miterlimit:4;stroke-opacity:1;stroke-dasharray:none"
               d="M 0,0 -0.001,-1.235 -2.254,-1.236 -2.254,0 0,0 z"
               inkscape:connector-curvature="0" />
          </g>
        </g>
      </g>
      <text
         xml:space="preserve"
         style="font-size:12px;font-style:normal;font-variant:normal;font-weight:normal;font-stretch:normal;line-height:125%;letter-spacing:0px;word-spacing:0px;fill:#000000;fill-opacity:1;stroke:none;font-family:Droid Sans;-inkscape-font-specification:Droid Sans"
         x="-577.72791"
         y="478.46436"
         id="text5638"
         sodipodi:linespacing="125%"
         transform="matrix(0,-1,1,0,0,0)"><tspan
           sodipodi:role="line"
           id="tspan5640"
           x="-577.72791"
           y="478.46436"
           style="font-size:14px">Digital</tspan></text>
      <text
         xml:space="preserve"
         style="font-size:14px;font-style:normal;font-variant:normal;font-weight:normal;font-stretch:normal;line-height:125%;letter-spacing:0px;word-spacing:0px;fill:#000000;fill-opacity:1;stroke:none;font-family:Droid Sans;-inkscape-font-specification:Droid Sans"
         x="-477.53192"
         y="456.74353"
         id="text5642"
         sodipodi:linespacing="125%"
         transform="matrix(0,-1,1,0,0,0)"><tspan
           sodipodi:role="line"
           id="tspan5644"
           x="-477.53192"
           y="456.74353">LOW</tspan></text>
      <text
         xml:space="preserve"
         style="font-size:14px;font-style:normal;font-variant:normal;font-weight:normal;font-stretch:normal;line-height:125%;letter-spacing:0px;word-spacing:0px;fill:#000000;fill-opacity:1;stroke:none;font-family:Droid Sans;-inkscape-font-specification:Droid Sans"
         x="-476.13055"
         y="477.76367"
         id="text5646"
         sodipodi:linespacing="125%"
         transform="matrix(0,-1,1,0,0,0)"><tspan
           sodipodi:role="line"
           id="tspan5648"
           x="-476.13055"
           y="477.76367">aus</tspan></text>
      <text
         xml:space="preserve"
         style="font-size:14px;font-style:normal;font-variant:normal;font-weight:normal;font-stretch:normal;line-height:125%;letter-spacing:0px;word-spacing:0px;fill:#000000;fill-opacity:1;stroke:none;font-family:Droid Sans;-inkscape-font-specification:Droid Sans"
         x="-481.45129"
         y="500.28174"
         id="text5650"
         sodipodi:linespacing="125%"
         transform="matrix(0,-1,1,0,0,0)"><tspan
           sodipodi:role="line"
           id="tspan5652"
           x="-481.45129"
           y="500.28174">0 Volt</tspan></text>
      <text
         xml:space="preserve"
         style="font-size:14px;font-style:normal;font-variant:normal;font-weight:normal;font-stretch:normal;line-height:125%;letter-spacing:0px;word-spacing:0px;fill:#000000;fill-opacity:1;stroke:none;font-family:Droid Sans;-inkscape-font-specification:Droid Sans"
         x="-420.67548"
         y="479.86569"
         id="text5654"
         sodipodi:linespacing="125%"
         transform="matrix(0,-1,1,0,0,0)"><tspan
           sodipodi:role="line"
           id="tspan5656"
           x="-420.67548"
           y="479.86569">oder</tspan></text>
      <text
         xml:space="preserve"
         style="font-size:14px;font-style:normal;font-variant:normal;font-weight:normal;font-stretch:normal;line-height:125%;letter-spacing:0px;word-spacing:0px;fill:#000000;fill-opacity:1;stroke:none;font-family:Droid Sans;-inkscape-font-specification:Droid Sans"
         x="-343.00293"
         y="455.34216"
         id="text5658"
         sodipodi:linespacing="125%"
         transform="matrix(0,-1,1,0,0,0)"><tspan
           sodipodi:role="line"
           id="tspan5660"
           x="-343.00293"
           y="455.34216">HIGH</tspan></text>
      <text
         xml:space="preserve"
         style="font-size:14px;font-style:normal;font-variant:normal;font-weight:normal;font-stretch:normal;line-height:125%;letter-spacing:0px;word-spacing:0px;fill:#000000;fill-opacity:1;stroke:none;font-family:Droid Sans;-inkscape-font-specification:Droid Sans"
         x="-338.09827"
         y="478.46432"
         id="text5662"
         sodipodi:linespacing="125%"
         transform="matrix(0,-1,1,0,0,0)"><tspan
           sodipodi:role="line"
           id="tspan5664"
           x="-338.09827"
           y="478.46432">an</tspan></text>
      <text
         xml:space="preserve"
         style="font-size:14px;font-style:normal;font-variant:normal;font-weight:normal;font-stretch:normal;line-height:125%;letter-spacing:0px;word-spacing:0px;fill:#000000;fill-opacity:1;stroke:none;font-family:Droid Sans;-inkscape-font-specification:Droid Sans"
         x="-344.4043"
         y="500.88583"
         id="text5666"
         sodipodi:linespacing="125%"
         transform="matrix(0,-1,1,0,0,0)"><tspan
           sodipodi:role="line"
           id="tspan5668"
           x="-344.4043"
           y="500.88583">5 Volt</tspan></text>
      <text
         xml:space="preserve"
         style="font-size:14px;font-style:normal;font-variant:normal;font-weight:normal;font-stretch:normal;line-height:125%;letter-spacing:0px;word-spacing:0px;fill:#000000;fill-opacity:1;stroke:none;font-family:Droid Sans;-inkscape-font-specification:Droid Sans"
         x="-577.02728"
         y="553.33966"
         id="text5670"
         sodipodi:linespacing="125%"
         transform="matrix(0,-1,1,0,0,0)"><tspan
           sodipodi:role="line"
           id="tspan5672"
           x="-577.02728"
           y="553.33966">Analog</tspan></text>
      <text
         xml:space="preserve"
         style="font-size:14px;font-style:normal;font-variant:normal;font-weight:normal;font-stretch:normal;line-height:125%;letter-spacing:0px;word-spacing:0px;fill:#000000;fill-opacity:1;stroke:none;font-family:Droid Sans;-inkscape-font-specification:Droid Sans"
         x="-483.68845"
         y="542.92908"
         id="text5650-8"
         sodipodi:linespacing="125%"
         transform="matrix(0,-1,1,0,0,0)"><tspan
           sodipodi:role="line"
           id="tspan5652-9"
           x="-483.68845"
           y="542.92908">0 Volt</tspan></text>
      <text
         xml:space="preserve"
         style="font-size:14px;font-style:normal;font-variant:normal;font-weight:normal;font-stretch:normal;line-height:125%;letter-spacing:0px;word-spacing:0px;fill:#000000;fill-opacity:1;stroke:none;font-family:Droid Sans;-inkscape-font-specification:Droid Sans"
         x="-354.64145"
         y="543.5332"
         id="text5666-5"
         sodipodi:linespacing="125%"
         transform="matrix(0,-1,1,0,0,0)"><tspan
           sodipodi:role="line"
           id="tspan5668-3"
           x="-354.64145"
           y="543.5332">5 Volt</tspan></text>
      <text
         xml:space="preserve"
         style="font-size:14px;font-style:normal;font-variant:normal;font-weight:normal;font-stretch:normal;line-height:125%;letter-spacing:0px;word-spacing:0px;fill:#000000;fill-opacity:1;stroke:none;font-family:Droid Sans;-inkscape-font-specification:Droid Sans"
         x="-472.61377"
         y="565.78802"
         id="text5701"
         sodipodi:linespacing="125%"
         transform="matrix(0,-1,1,0,0,0)"><tspan
           sodipodi:role="line"
           id="tspan5703"
           x="-472.61377"
           y="565.78802">0</tspan></text>
      <text
         xml:space="preserve"
         style="font-size:14px;font-style:normal;font-variant:normal;font-weight:normal;font-stretch:normal;line-height:125%;letter-spacing:0px;word-spacing:0px;fill:#000000;fill-opacity:1;stroke:none;font-family:Droid Sans;-inkscape-font-specification:Droid Sans"
         x="-354.27203"
         y="566.09467"
         id="text5701-7"
         sodipodi:linespacing="125%"
         transform="matrix(0,-1,1,0,0,0)"><tspan
           sodipodi:role="line"
           id="tspan5703-8"
           x="-354.27203"
           y="566.09467">1023</tspan></text>
      <text
         xml:space="preserve"
         style="font-size:14px;font-style:normal;font-variant:normal;font-weight:normal;font-stretch:normal;line-height:125%;letter-spacing:0px;word-spacing:0px;fill:#000000;fill-opacity:1;stroke:none;font-family:Droid Sans;-inkscape-font-specification:Droid Sans"
         x="-413.66876"
         y="553.14355"
         id="text5726"
         sodipodi:linespacing="125%"
         transform="matrix(0,-1,1,0,0,0)"><tspan
           sodipodi:role="line"
           id="tspan5728"
           x="-413.66876"
           y="553.14355">bis</tspan></text>
    </g>
  </g>
</svg>
